<svg xmlns="http://www.w3.org/2000/svg" width="1600" height="900" viewBox="0 0 1600 900">
  <defs>
    <linearGradient id="bg" x1="0" y1="0" x2="1" y2="1">
      <stop offset="0%" stop-color="#0f2855" />
      <stop offset="100%" stop-color="#6d2e2e" />
    </linearGradient>
  </defs>

  <rect width="1600" height="900" fill="url(#bg)" />

  <!-- China side -->
  <rect x="80" y="120" width="600" height="370" rx="18" fill="#d01c1f" opacity="0.9" />
  <polygon points="165,195 181,242 231,242 191,271 207,318 165,289 123,318 139,271 99,242 149,242" fill="#ffd34d" />
  <polygon points="275,165 283,188 307,188 289,202 296,225 275,211 254,225 261,202 243,188 267,188" fill="#ffd34d" />
  <polygon points="315,235 323,258 347,258 329,272 336,295 315,281 294,295 301,272 283,258 307,258" fill="#ffd34d" />
  <polygon points="304,307 312,330 336,330 318,344 325,367 304,353 283,367 290,344 272,330 296,330" fill="#ffd34d" />
  <polygon points="262,364 270,387 294,387 276,401 283,424 262,410 241,424 248,401 230,387 254,387" fill="#ffd34d" />

  <!-- US side -->
  <rect x="920" y="120" width="600" height="370" rx="18" fill="#ffffff" opacity="0.96" />
  <g>
    <rect x="920" y="120" width="600" height="28" fill="#c81d25" />
    <rect x="920" y="176" width="600" height="28" fill="#c81d25" />
    <rect x="920" y="232" width="600" height="28" fill="#c81d25" />
    <rect x="920" y="288" width="600" height="28" fill="#c81d25" />
    <rect x="920" y="344" width="600" height="28" fill="#c81d25" />
    <rect x="920" y="400" width="600" height="28" fill="#c81d25" />
    <rect x="920" y="456" width="600" height="28" fill="#c81d25" />
  </g>
  <rect x="920" y="120" width="280" height="196" fill="#1c3f95" />
  <g fill="#ffffff" opacity="0.9">
    <circle cx="955" cy="148" r="4" />
    <circle cx="997" cy="148" r="4" />
    <circle cx="1039" cy="148" r="4" />
    <circle cx="1081" cy="148" r="4" />
    <circle cx="1123" cy="148" r="4" />
    <circle cx="1165" cy="148" r="4" />
    <circle cx="976" cy="172" r="4" />
    <circle cx="1018" cy="172" r="4" />
    <circle cx="1060" cy="172" r="4" />
    <circle cx="1102" cy="172" r="4" />
    <circle cx="1144" cy="172" r="4" />
    <circle cx="955" cy="196" r="4" />
    <circle cx="997" cy="196" r="4" />
    <circle cx="1039" cy="196" r="4" />
    <circle cx="1081" cy="196" r="4" />
    <circle cx="1123" cy="196" r="4" />
    <circle cx="1165" cy="196" r="4" />
    <circle cx="976" cy="220" r="4" />
    <circle cx="1018" cy="220" r="4" />
    <circle cx="1060" cy="220" r="4" />
    <circle cx="1102" cy="220" r="4" />
    <circle cx="1144" cy="220" r="4" />
    <circle cx="955" cy="244" r="4" />
    <circle cx="997" cy="244" r="4" />
    <circle cx="1039" cy="244" r="4" />
    <circle cx="1081" cy="244" r="4" />
    <circle cx="1123" cy="244" r="4" />
    <circle cx="1165" cy="244" r="4" />
    <circle cx="976" cy="268" r="4" />
    <circle cx="1018" cy="268" r="4" />
    <circle cx="1060" cy="268" r="4" />
    <circle cx="1102" cy="268" r="4" />
    <circle cx="1144" cy="268" r="4" />
  </g>

  <!-- Center handshake symbol -->
  <circle cx="800" cy="360" r="85" fill="#f8e0c8" opacity="0.92" />
  <path d="M745 378c16-22 31-37 55-37 24 0 40 15 55 37" fill="none" stroke="#0e274f" stroke-width="16" stroke-linecap="round" />
  <rect x="728" y="376" width="44" height="32" rx="8" fill="#1c3f95" />
  <rect x="828" y="376" width="44" height="32" rx="8" fill="#c81d25" />
</svg>
