<svg xmlns="http://www.w3.org/2000/svg" width="1200" height="700" viewBox="0 0 1200 700">
  <rect width="1200" height="700" fill="#caa882"/>
  <rect x="90" y="70" width="1020" height="560" rx="22" fill="#d5b792"/>

  <!-- pot -->
  <ellipse cx="600" cy="385" rx="360" ry="220" fill="#282a31"/>
  <ellipse cx="600" cy="375" rx="320" ry="190" fill="#3a3d47"/>

  <!-- clear red broth -->
  <ellipse cx="600" cy="370" rx="290" ry="165" fill="#d31818"/>
  <ellipse cx="600" cy="370" rx="200" ry="165" fill="#f34a2f" opacity="0.55"/>

  <!-- chili and pepper -->
  <g fill="#a50f12">
    <ellipse cx="470" cy="300" rx="28" ry="10" transform="rotate(-18 470 300)" />
    <ellipse cx="540" cy="340" rx="26" ry="9" transform="rotate(10 540 340)" />
    <ellipse cx="620" cy="310" rx="30" ry="10" transform="rotate(-8 620 310)" />
    <ellipse cx="700" cy="360" rx="27" ry="9" transform="rotate(15 700 360)" />
    <ellipse cx="760" cy="325" rx="24" ry="8" transform="rotate(-16 760 325)" />
  </g>
  <g fill="#ff7b38">
    <circle cx="505" cy="355" r="10"/><circle cx="575" cy="390" r="9"/><circle cx="650" cy="345" r="11"/>
    <circle cx="730" cy="395" r="10"/><circle cx="790" cy="350" r="9"/>
  </g>

  <!-- steam -->
  <g stroke="#ffffff" stroke-opacity="0.7" stroke-width="5" fill="none" stroke-linecap="round">
    <path d="M510 180 C495 145, 530 125, 510 95" />
    <path d="M600 170 C585 135, 620 115, 600 85" />
    <path d="M690 180 C675 145, 710 125, 690 95" />
  </g>
</svg>
